<?xml version="1.0" encoding="UTF-8"?>
<!DOCTYPE svg PUBLIC "-//W3C//DTD SVG 1.1//EN" "http://www.w3.org/Graphics/SVG/1.1/DTD/svg11.dtd">
<!-- Creator: CorelDRAW -->
<svg xmlns="http://www.w3.org/2000/svg" xml:space="preserve" width="300px" height="200px" style="shape-rendering:geometricPrecision; text-rendering:geometricPrecision; image-rendering:optimizeQuality; fill-rule:evenodd; clip-rule:evenodd"
viewBox="55 100 100 100"
 xmlns:xlink="http://www.w3.org/1999/xlink">
 <defs>
  <style type="text/css">
   <![CDATA[
    .str0 {stroke:#FFF500;stroke-width:0.13}
    .fil1 {fill:#FFF500;fill-rule:nonzero}
    .fil0 {fill:white;fill-rule:nonzero}
   ]]>
  </style>
 </defs>
 <g id="Layer_x0020_1">
  <metadata id="CorelCorpID_0Corel-Layer"/>
  <path class="fil0" d="M148.112 115.868c0,-0.9741 -0.7921,-1.7663 -1.8274,-1.7663 -1.036,0 -1.767,0.7922 -1.767,1.7663 0,0.9749 0.7921,1.8274 1.767,1.8274 1.0353,0 1.8274,-0.8525 1.8274,-1.8274z"/>
  <path class="fil1 str0" d="M137.574 143.404l0 -16.2642c0,-8.2846 -4.8736,-13.0359 -11.6955,-13.0359 -6.8227,0 -11.6589,4.752 -11.6956,13.0359l-0.0727 16.1908c0.8368,0.0245 1.6728,0.0489 2.5088,0.0734l0 -17.0563c0,-6.0305 3.8988,-9.9897 9.2595,-9.9897 5.36,0 9.2587,3.9592 9.2587,9.9897l0 17.0563 2.4368 0z"/>
  <polygon class="fil0" points="106.69,143.404 106.69,119.721 104.192,119.722 104.192,143.404 "/>
  <path class="fil0" d="M107.238 115.868c0,-0.9741 -0.7921,-1.7663 -1.8274,-1.7663 -1.036,0 -1.767,0.7922 -1.767,1.7663 0,0.9749 0.7921,1.8274 1.767,1.8274 1.0353,0 1.8274,-0.8525 1.8274,-1.8274z"/>
  <path class="fil0" d="M96.6995 143.404l0 -17.6045c0,-7.4314 -4.2635,-11.6956 -10.6595,-11.6956 -3.8988,0 -6.8838,1.8274 -9.1379,5.6039 -2.1318,-3.7153 -5.1772,-5.6039 -9.1372,-5.6039 -6.396,0 -10.5991,4.2642 -10.5991,11.6956l0 17.6045 2.4368 0 0 -18.3967c0,-5.2384 3.411,-8.6493 8.0407,-8.6493 4.6902,0 8.0408,3.4109 8.0408,8.6493l0 18.3967 2.4368 0 0 -18.3967c0,-5.2384 3.3498,-8.6493 8.0407,-8.6493 4.6297,0 8.0407,3.4109 8.0407,8.6493l0 18.3967 2.4972 0z"/>
  <path class="fil0" d="M163.326 181.045l0 -17.6045c0,-7.4313 -4.2636,-11.6956 -10.6596,-11.6956 -3.8987,0 -6.8838,1.8275 -9.1379,5.6039 -2.1317,-3.7153 -5.1772,-5.6039 -9.1371,-5.6039 -6.3961,0 -10.5992,4.2643 -10.5992,11.6956l0 17.6045 2.4369 0 0 -18.3966c0,-5.2384 3.4109,-8.6494 8.0407,-8.6494 4.6902,0 8.0407,3.411 8.0407,8.6494l0 18.3966 2.4368 0 0 -18.3966c0,-5.2384 3.3498,-8.6494 8.0407,-8.6494 4.6298,0 8.0407,3.411 8.0407,8.6494l0 18.3966 2.4973 0z"/>
  <path class="fil1 str0" d="M116.629 168.557c-0.0036,-9.3595 -0.0079,-18.719 -0.0123,-28.0792 -0.8108,0.0044 -1.6223,0.0087 -2.4339,0.0123l0.0202 28.8224c0.0043,6.0276 -3.8736,10.0264 -9.2336,10.0264 -5.3607,0 -9.2595,-3.9592 -9.2595,-9.9898l0 -12.0035 -2.4361 -0.0007 0 11.2121c0,8.2839 4.8729,13.046 11.6956,13.046 6.8219,0 11.6596,-4.7614 11.6596,-13.046z"/>
  <path class="fil0" d="M86.2076 181.045l0 -17.6045c0,-7.4313 -4.2635,-11.6956 -10.6595,-11.6956 -3.8988,0 -6.8838,1.8275 -9.1379,5.6039 -2.1318,-3.7153 -5.1773,-5.6039 -9.1372,-5.6039 -6.396,0 -10.5991,4.2643 -10.5991,11.6956l0 17.6045 2.4368 0 0 -18.3966c0,-5.2384 3.411,-8.6494 8.0407,-8.6494 4.6902,0 8.0407,3.411 8.0407,8.6494l0 18.3966 2.4369 0 0 -18.3966c0,-5.2384 3.3498,-8.6494 8.0407,-8.6494 4.6297,0 8.0407,3.411 8.0407,8.6494l0 18.3966 2.4972 0z"/>
  <polygon class="fil0" points="147.564,143.404 147.564,119.721 145.066,119.722 145.066,143.404 "/>
 </g>
</svg>
